PathFileType	4	(X/Y/Z)	c:/Users/goper/Files/vsCode/490R/osim_files/C11/C11_Static02.trc
DataRate	CameraRate	NumFrames	NumMarkers	Units                	OrigDataRate	OrigDataStartFrame	OrigNumFrames
120.00	120.00	8	36	mm	120.0	123	978
                Frame#	Time	LPSI			LASI			LTH1			LTH2			LTH3			LTH4			LLFE			LMFE			LSH1			LSH2			LSH3			LSH4			LLMA			LMMA			LCAL			LMTP			LTOE			LMTP			RPSI			RASI			RTH1			RTH2			RTH3			RTH4			RLFE			RMFE			RSH1			RSH2			RSH3			RSH4			RLMA			RMMA			RCAL			RMTP			RTOE			RMTP		
		X1	Y1	Z1	X2	Y2	Z2	X3	Y3	Z3	X4	Y4	Z4	X5	Y5	Z5	X6	Y6	Z6	X7	Y7	Z7	X8	Y8	Z8	X9	Y9	Z9	X10	Y10	Z10	X11	Y11	Z11	X12	Y12	Z12	X13	Y13	Z13	X14	Y14	Z14	X15	Y15	Z15	X16	Y16	Z16	X17	Y17	Z17	X18	Y18	Z18	X19	Y19	Z19	X20	Y20	Z20	X21	Y21	Z21	X22	Y22	Z22	X23	Y23	Z23	X24	Y24	Z24	X25	Y25	Z25	X26	Y26	Z26	X27	Y27	Z27	X28	Y28	Z28	X29	Y29	Z29	X30	Y30	Z30	X31	Y31	Z31	X32	Y32	Z32	X33	Y33	Z33	X34	Y34	Z34	X35	Y35	Z35	X36	Y36	Z36

123	1.01667	-359.77097	1014.23578	510.08002	-180.47800	1012.21838	447.14777	-293.11826	603.30487	358.76550	-283.76175	556.61365	361.27567	-233.13751	610.66565	364.73264	-233.60854	563.87726	369.51202	-291.47363	517.17749	360.30518	-278.29697	504.97076	470.23004	-351.54578	413.71082	345.03549	-351.87061	369.99023	341.31326	-289.86243	408.29498	338.16293	-299.18686	364.33551	336.19113	-335.76529	95.51713	379.01929	-301.15042	110.74474	470.16187	-390.82959	59.52737	435.78189	-225.39047	39.75534	340.59354	-149.73051	56.21696	405.71661	-186.90115	44.66622	454.20453	-361.05566	1024.12061	595.65582	-203.65474	1003.57446	685.27136	-320.61185	606.77057	730.62115	-313.92249	563.42737	728.62659	-257.97107	609.37122	726.47345	-261.33820	566.39777	725.99261	-301.29404	521.12531	720.75061	-314.35468	495.02231	605.87427	-376.03250	414.62216	734.50861	-372.47974	368.07977	735.70593	-315.21414	410.13095	735.65417	-319.32224	364.09677	739.27502	-357.29031	97.78085	703.75299	-317.66571	106.26217	613.47046	-412.92007	60.41387	643.14233	-194.73499	48.93919	652.61066	-197.98647	61.20361	702.93555	-246.73724	39.22783	757.75891
124	1.02500	-359.74460	1014.22589	510.18301	-180.48315	1012.14789	447.22681	-293.08102	603.30023	358.80167	-283.72919	556.60077	361.30167	-233.10396	610.61108	364.78680	-233.57690	563.84760	369.57169	-291.43951	517.16321	360.33319	-278.26044	504.94464	470.27399	-351.52194	413.68817	345.06015	-351.84592	370.00616	341.32745	-289.85443	408.27719	338.18558	-299.17636	364.32425	336.20325	-335.75354	95.50901	379.03180	-301.17978	110.71387	470.18793	-390.84979	59.51075	435.81921	-225.37526	39.84224	340.52362	-149.73164	56.18875	405.71811	-186.91835	44.61972	454.23309	-361.01477	1024.15747	595.74182	-203.64517	1003.52191	685.35126	-320.63663	606.75891	730.69470	-313.96408	563.42096	728.68549	-258.06747	609.32391	726.52527	-261.44229	566.37213	726.05200	-301.37125	521.09808	720.80664	-314.45584	495.02002	605.89960	-376.08908	414.59955	734.55939	-372.53558	368.06650	735.76489	-315.38391	410.01797	735.67194	-319.41583	364.05481	739.31903	-357.29684	97.74519	703.79651	-317.65109	106.24169	613.47717	-412.93698	60.40745	643.16571	-194.78925	48.88213	652.62518	-197.98802	61.15343	702.96106	-246.74440	39.19904	757.78870
125	1.03333	-359.75250	1014.22504	510.28491	-180.51759	1012.08295	447.30496	-293.08743	603.31104	358.81747	-283.77158	556.61499	361.34720	-233.13670	610.58533	364.83279	-233.62282	563.82080	369.61798	-291.44833	517.15601	360.35373	-279.20230	504.44287	470.32977	-351.57111	413.73114	345.09116	-351.88712	369.99844	341.35330	-289.91495	408.28000	338.20679	-299.19550	364.32797	336.22910	-335.74557	95.52962	379.01102	-301.20712	110.67329	470.19168	-390.81357	59.40992	435.83395	-225.37575	39.83546	340.52164	-149.77013	56.13593	405.75702	-186.94762	44.59056	454.27631	-360.95999	1024.17297	595.80542	-203.62889	1003.48822	685.42407	-320.72629	606.72644	730.74908	-314.06650	563.40387	728.73840	-258.19238	609.25891	726.60785	-261.58319	566.32410	726.10797	-301.46835	521.06305	720.84778	-314.55316	495.01385	605.89252	-376.15811	414.54520	734.56934	-372.60300	368.02707	735.80597	-315.47293	409.98450	735.70587	-319.48325	364.02521	739.35852	-357.29611	97.71719	703.81708	-317.66144	106.26776	613.46375	-412.93338	60.35645	643.20221	-194.77681	48.86351	652.65570	-198.02942	61.12922	703.01306	-246.77731	39.20346	757.80969
126	1.04167	-359.71472	1014.23718	510.39096	-180.52428	1012.05811	447.36197	-293.03082	603.22913	358.79007	-283.81665	556.63800	361.39590	-233.19193	610.57477	364.89566	-233.69614	563.81268	369.68445	-291.47275	517.15607	360.38351	-279.22882	504.40030	470.40027	-351.61987	413.76147	345.09436	-351.95117	370.00790	341.37689	-289.91687	408.29779	338.23227	-299.25360	364.33771	336.24493	-335.76880	95.54366	378.99924	-301.21201	110.67801	470.17593	-390.75104	59.36956	435.83215	-225.40390	39.83283	340.50912	-149.77034	56.15059	405.77457	-186.95291	44.61289	454.28394	-360.91318	1024.17920	595.88452	-203.59441	1003.47980	685.47595	-320.82700	606.74121	730.76685	-314.13773	563.39325	728.77698	-258.31818	609.22894	726.65424	-261.70349	566.30554	726.16968	-301.53214	521.04675	720.89642	-314.63937	495.03461	605.88312	-376.21664	414.52792	734.58533	-372.55612	367.99460	735.74011	-315.58801	409.93738	735.74622	-319.57535	364.02740	739.40771	-357.25571	97.72789	703.83026	-317.69193	106.27958	613.44690	-412.91327	60.32341	643.19159	-194.79147	48.86452	652.67230	-198.03195	61.14397	703.04065	-246.74866	39.24181	757.81860
127	1.05000	-359.71191	1014.21027	510.53049	-180.52026	1012.03967	447.40549	-293.11179	603.20905	358.80359	-283.93643	556.65295	361.43420	-233.27109	610.53473	364.96146	-233.77048	563.76770	369.73294	-291.54340	517.14465	360.41296	-278.53369	504.74261	470.36053	-351.72470	413.74475	345.14270	-352.04425	370.02136	341.40939	-290.02356	408.26965	338.27234	-299.30853	364.33191	336.28119	-335.77872	95.56315	378.98639	-301.20102	110.66883	470.15854	-390.79443	59.39239	435.80402	-225.39250	39.83781	340.49820	-149.77209	56.16283	405.76688	-186.96796	44.60817	454.27051	-360.88956	1024.19495	595.99829	-203.51839	1003.46924	685.53839	-320.95102	606.73334	730.78656	-314.23865	563.38300	728.78497	-258.40808	609.23608	726.67163	-261.82114	566.29858	726.20654	-301.61874	521.03979	720.92200	-314.75897	495.02374	605.91370	-376.31805	414.51294	734.57355	-372.67432	367.99664	735.75623	-315.72379	409.92700	735.73926	-319.63757	364.03162	739.43042	-357.29248	97.72474	703.79395	-317.66901	106.28734	613.45264	-412.95212	60.36843	643.16577	-194.92627	48.96474	652.60181	-198.03018	61.13664	703.02167	-246.74361	39.23811	757.80109
128	1.05833	-359.75388	1014.22754	510.67734	-180.53293	1012.01428	447.43140	-293.30359	603.31409	358.91476	-284.06824	556.62292	361.49075	-233.34077	610.51141	365.01340	-233.85162	563.72620	369.78531	-291.65845	517.12982	360.44037	-278.64163	504.69214	470.41202	-351.81348	413.73465	345.18317	-352.12256	370.02133	341.45105	-290.09329	408.26419	338.29224	-299.37375	364.30353	336.28903	-335.79700	95.56890	378.99112	-301.19913	110.65536	470.14868	-390.83365	59.46732	435.77338	-225.33829	39.76056	340.55417	-149.71648	56.18145	405.72217	-186.90459	44.60526	454.23019	-360.90921	1024.26978	596.13208	-203.43681	1003.44244	685.59424	-321.04474	606.75830	730.78882	-314.30792	563.41614	728.83539	-258.47382	609.23309	726.68616	-261.89725	566.29364	726.23279	-301.72400	521.03363	720.94470	-314.84229	495.01596	605.95862	-376.35880	414.52020	734.61487	-372.74884	367.96948	735.75043	-315.63400	410.00931	735.81177	-319.67813	364.04599	739.43652	-357.23621	97.72500	703.76331	-317.63425	106.26402	613.47839	-412.96341	60.41367	643.14832	-194.77780	48.88797	652.63464	-197.99457	61.14280	702.98395	-246.71979	39.21649	757.77289
129	1.06667	-359.77237	1014.25543	510.85992	-180.57294	1011.96228	447.45978	-293.43674	603.28784	358.97940	-284.18573	556.59973	361.54846	-233.47917	610.47327	365.05707	-233.95700	563.70459	369.82590	-291.75659	517.11060	360.49191	-278.72623	504.70908	470.43903	-352.33795	413.55090	345.43454	-352.17624	370.00589	341.44455	-290.22510	408.25232	338.32880	-299.47238	364.30569	336.30038	-335.77795	95.55099	378.99945	-301.15680	110.69102	470.14087	-390.86734	59.52422	435.75446	-225.34372	39.75152	340.55283	-149.71515	56.17713	405.69000	-186.87439	44.61994	454.19775	-360.93137	1024.35767	596.32562	-203.34843	1003.43463	685.64221	-321.15128	606.81451	730.82794	-314.38110	563.43781	728.92010	-258.49878	609.24329	726.72455	-261.96912	566.31342	726.28131	-301.80200	521.07001	720.99347	-314.96060	495.00134	606.05219	-376.43188	414.50293	734.66876	-372.85684	368.01114	735.80133	-315.69077	410.05820	735.84235	-319.74942	364.05408	739.43933	-357.27942	97.76605	703.77264	-317.63800	106.24911	613.50543	-412.96228	60.45357	643.14447	-194.78546	48.88075	652.61932	-197.97076	61.15284	702.94806	-246.69832	39.21424	757.75958
130	1.07500	-359.84674	1014.25110	511.05103	-180.64230	1011.90033	447.50446	-293.58444	603.24152	359.05530	-284.33777	556.54236	361.61441	-233.64383	610.44763	365.10107	-234.13475	563.67200	369.85428	-291.91153	517.06622	360.54517	-278.87122	504.70062	470.50006	-352.46332	413.53845	345.47324	-352.28656	369.99429	341.48270	-290.35056	408.26962	338.35641	-299.60147	364.28653	336.33664	-335.78143	95.50684	379.00955	-301.16592	110.67895	470.15540	-391.45990	59.60189	435.52994	-225.36177	39.71952	340.56763	-149.73720	56.14656	405.70901	-186.88905	44.59840	454.19870	-360.96423	1024.38354	596.47894	-203.27313	1003.42072	685.68738	-321.26093	606.79645	730.90588	-314.48972	563.39832	728.93536	-258.59274	609.22205	726.81067	-262.06802	566.31116	726.34839	-301.90271	521.08020	721.06189	-315.07263	494.97198	606.13672	-376.54321	414.48895	734.71948	-372.95352	368.00299	735.84839	-315.81168	410.04800	735.88013	-319.82593	364.05896	739.48694	-357.34286	97.79588	703.79755	-317.65860	106.22356	613.53918	-412.95966	60.40283	643.15643	-194.76477	48.84660	652.62872	-197.94975	61.13599	702.94696	-246.72037	39.18577	757.76843
